<svg width="95" height="14" viewBox="0 0 95 14" fill="none" xmlns="http://www.w3.org/2000/svg">
<path d="M4.704 12.974L5.642 11.56C3.752 10.244 2.94 8.956 2.94 6.982C2.94 5.008 3.752 3.72 5.642 2.404L4.704 0.99C2.128 2.39 0.826 4.294 0.826 6.982C0.826 9.67 2.128 11.574 4.704 12.974ZM10.7284 11.168C12.2264 11.168 13.0664 10.594 13.7944 9.796L12.5484 8.536C12.0304 9.026 11.5404 9.334 10.8264 9.334C9.66438 9.334 8.92238 8.41 8.92238 7.262C8.92238 6.128 9.67838 5.19 10.7424 5.19C11.5824 5.19 12.0304 5.498 12.4924 5.932L13.7384 4.672C13.0384 3.888 12.1704 3.356 10.7564 3.356C8.46037 3.356 6.82237 5.12 6.82237 7.262C6.82237 9.432 8.47437 11.168 10.7284 11.168ZM15.7584 12.974C18.3344 11.574 19.6364 9.67 19.6364 6.982C19.6364 4.294 18.3344 2.39 15.7584 0.99L14.8204 2.404C16.7104 3.72 17.5224 5.008 17.5224 6.982C17.5224 8.956 16.7104 10.244 14.8204 11.56L15.7584 12.974ZM21.6428 11H23.7988V8.06H25.4368C27.6348 8.06 29.3988 6.884 29.3988 4.616C29.3988 2.586 27.9848 1.2 25.6468 1.2H21.6428V11ZM23.7988 6.142V3.146H25.4648C26.5428 3.146 27.2148 3.664 27.2148 4.63C27.2148 5.498 26.5848 6.142 25.5068 6.142H23.7988ZM30.9944 11H33.1504V7.864H34.8164L36.9444 11H39.4644L37.0704 7.5C38.3164 7.038 39.1704 6.044 39.1704 4.462C39.1704 3.51 38.8764 2.74 38.3304 2.194C37.6864 1.55 36.7204 1.2 35.4744 1.2H30.9944V11ZM33.1504 5.96V3.146H35.2924C36.3424 3.146 36.9864 3.622 36.9864 4.546C36.9864 5.4 36.3844 5.96 35.3344 5.96H33.1504ZM45.8715 11.168C48.8955 11.168 51.0935 8.886 51.0935 6.1C51.0935 3.286 48.9235 1.032 45.8995 1.032C42.8755 1.032 40.6775 3.314 40.6775 6.1C40.6775 8.914 42.8475 11.168 45.8715 11.168ZM45.8995 9.18C44.1635 9.18 42.9315 7.78 42.9315 6.1C42.9315 4.392 44.1355 3.02 45.8715 3.02C47.6075 3.02 48.8395 4.42 48.8395 6.1C48.8395 7.808 47.6355 9.18 45.8995 9.18ZM57.5981 11.168C59.4881 11.168 60.6081 10.58 61.6161 9.502L60.2441 8.032C59.4741 8.732 58.7881 9.18 57.6681 9.18C55.9881 9.18 54.8261 7.78 54.8261 6.1C54.8261 4.392 56.0161 3.02 57.6681 3.02C58.7881 3.02 59.4321 3.426 60.1881 4.112L61.4761 2.628C60.5661 1.732 59.5301 1.032 57.6821 1.032C54.6721 1.032 52.5721 3.314 52.5721 6.1C52.5721 8.942 54.7141 11.168 57.5981 11.168ZM68.102 11.168C71.126 11.168 73.324 8.886 73.324 6.1C73.324 3.286 71.154 1.032 68.13 1.032C65.106 1.032 62.908 3.314 62.908 6.1C62.908 8.914 65.078 11.168 68.102 11.168ZM68.13 9.18C66.394 9.18 65.162 7.78 65.162 6.1C65.162 4.392 66.366 3.02 68.102 3.02C69.838 3.02 71.07 4.42 71.07 6.1C71.07 7.808 69.866 9.18 68.13 9.18ZM75.2365 11H79.0585C82.1385 11 84.2665 8.858 84.2665 6.1C84.2665 3.314 82.1385 1.2 79.0585 1.2H75.2365V11ZM77.3925 9.054V3.146H79.0585C80.8225 3.146 82.0125 4.364 82.0125 6.1C82.0125 7.864 80.8225 9.054 79.0585 9.054H77.3925ZM86.1877 11H93.6497V9.082H88.3297V7.024H92.9497V5.106H88.3297V3.118H93.5797V1.2H86.1877V11Z" fill="white"/>
<path d="M0 12.7616H94.3917V13.0416H0V12.7616Z" fill="white"/>
</svg>
